<svg width="16" height="16" viewBox="0 0 16 16" xmlns="http://www.w3.org/2000/svg"><path fill-rule="evenodd" clip-rule="evenodd" d="M6.5 5c-.34.17-.86-.048-1.457-.299-1.158-.486-2.598-1.09-3.542.8-.555 1.11-.032 1.515.543 1.962.462.358.957.743.957 1.537 0 .482-.458.51-1.016.546C1.115 9.602 0 9.672 0 11.501c0 2.41 2.409 1.354 4.21.563.813-.357 1.503-.66 1.79-.563.606.201.235.728-.226 1.383C5.09 13.854 4.21 15.105 6 16c2.062 0 2.597-1.076 2.968-1.82.169-.34.304-.61.533-.68.387-.116.548.24.75.689.314.698.728 1.616 2.25 1.312 2.848-1.9 1.49-3.197.363-4.274-.654-.625-1.23-1.176-.863-1.727.346-.52 1.02-.425 1.721-.327C14.69 9.307 15.711 9.45 16 8c0-2.754-1.204-2.523-2.547-2.267-.852.163-1.76.337-2.452-.233-.324-.162-.28-.796-.227-1.58C10.886 2.285 11.042 0 8 0 5.101.645 5.81 2.24 6.363 3.484c.305.686.562 1.265.138 1.516Zm1.61-3.998c-.928.223-1.152.503-1.201.591-.05.088-.089.27.054.708.067.207.158.423.266.666l.046.103c.09.202.192.434.27.648.088.238.197.587.178.958-.024.452-.24.905-.711 1.185l-.031.018-.032.016a1.73 1.73 0 0 1-1.036.142 3.737 3.737 0 0 1-.768-.215 14.913 14.913 0 0 1-.558-.227 7.237 7.237 0 0 0-.722-.276c-.399-.125-.65-.133-.822-.08-.132.041-.376.167-.647.709-.113.227-.13.34-.13.38.013.018.063.084.237.223.037.03.081.063.132.101.447.335 1.367 1.026 1.367 2.348 0 .38-.127.772-.447 1.07-.28.261-.61.355-.82.399-.219.045-.45.06-.618.071l-.069.004c-.16.01-.29.019-.42.036-.302.038-.408.102-.454.148-.028.027-.173.183-.173.773 0 .31.072.468.072.468a.2.2 0 0 0 .01.003c.162.046.556.017 1.246-.22.48-.165.965-.378 1.45-.59.167-.074.335-.147.502-.219.306-.13.625-.26.912-.346a2.8 2.8 0 0 1 .475-.102c.156-.018.395-.028.65.057.374.124.837.417.968 1.008.105.474-.077.887-.179 1.09a5.6 5.6 0 0 1-.417.671l-.106.15c-.108.154-.207.295-.304.445-.274.427-.34.658-.335.768.001.02.004.046.043.096a.987.987 0 0 0 .259.214c.48-.026.79-.129.997-.238.236-.124.398-.29.533-.487.111-.163.182-.306.272-.486.039-.079.082-.164.133-.262.07-.136.173-.321.314-.49.148-.177.378-.386.717-.488a1.386 1.386 0 0 1 1.078.1c.308.168.491.42.595.586a4.24 4.24 0 0 1 .278.551c.057.127.104.23.158.333.122.233.217.332.3.38.05.03.185.093.498.057.896-.632 1.05-1.037 1.072-1.187.02-.138-.027-.359-.384-.77a9.24 9.24 0 0 0-.641-.65c-.201-.192-.432-.412-.626-.633-.203-.23-.451-.55-.575-.946a1.627 1.627 0 0 1 .204-1.418c.472-.709 1.203-.845 1.725-.85.26-.002.515.026.731.054l.257.035c.12.017.228.032.35.045.4.045.556.013.614-.015.009-.004.022-.01.045-.045A.873.873 0 0 0 15 7.894c-.013-.985-.206-1.239-.238-1.27 0 0-.004-.012-.061-.023a1.43 1.43 0 0 0-.413.005c-.192.023-.397.062-.65.11l-.083.016a9.39 9.39 0 0 1-.932.141c-.643.057-1.463.011-2.186-.544-.448-.282-.595-.743-.648-1.016a4.08 4.08 0 0 1-.044-.926c.009-.21.023-.41.036-.603.028-.397.053-.77.034-1.173-.027-.574-.147-.941-.342-1.166-.158-.182-.503-.424-1.363-.443ZM2.266 6.344l-.001-.01.001.01Z"/></svg>